<svg width="122" height="125" viewBox="0 0 122 125" fill="none" xmlns="http://www.w3.org/2000/svg">
<path d="M45.8144 123.345C54.2065 123.345 61.0096 116.535 61.0096 108.134C61.0096 99.7329 54.2065 92.9225 45.8144 92.9225C37.4223 92.9225 30.6191 99.7329 30.6191 108.134C30.6191 116.535 37.4223 123.345 45.8144 123.345Z" fill="#136296"/>
<path d="M99.6054 123.345C107.997 123.345 114.801 116.535 114.801 108.134C114.801 99.7329 107.997 92.9225 99.6054 92.9225C91.2133 92.9225 84.4102 99.7329 84.4102 108.134C84.4102 116.535 91.2133 123.345 99.6054 123.345Z" fill="#136296"/>
<path d="M61.3125 108.134C61.3137 109.104 61.2215 110.072 61.037 111.024C60.3664 107.556 58.5108 104.43 55.7886 102.181C53.0665 99.9334 49.6476 98.7038 46.1187 98.7038C42.5897 98.7038 39.1708 99.9334 36.4487 102.181C33.7266 104.43 31.871 107.556 31.2003 111.024C30.799 108.943 30.8365 106.801 31.3104 104.736C31.7843 102.67 32.6842 100.727 33.9524 99.0294C35.2206 97.3323 36.829 95.9192 38.6746 94.8807C40.5202 93.8422 42.5622 93.2013 44.6697 92.999C46.7772 92.7967 48.9037 93.0375 50.9128 93.706C52.9219 94.3745 54.7693 95.4559 56.3365 96.8809C57.9037 98.3058 59.1562 100.043 60.0135 101.981C60.8709 103.919 61.3143 106.014 61.3153 108.134H61.3125Z" fill="#0B3C5C"/>
<path d="M115.104 108.134C115.105 109.104 115.012 110.072 114.828 111.024C114.157 107.556 112.302 104.43 109.58 102.181C106.858 99.9334 103.439 98.7038 99.9097 98.7038C96.3807 98.7038 92.9618 99.9334 90.2397 102.181C87.5176 104.43 85.662 107.556 84.9913 111.024C84.59 108.943 84.6275 106.801 85.1014 104.736C85.5753 102.67 86.4752 100.727 87.7434 99.0294C89.0116 97.3323 90.62 95.9192 92.4656 94.8807C94.3112 93.8422 96.3532 93.2013 98.4607 92.999C100.568 92.7967 102.695 93.0375 104.704 93.706C106.713 94.3745 108.56 95.4559 110.127 96.8809C111.695 98.3058 112.947 100.043 113.805 101.981C114.662 103.919 115.105 106.014 115.106 108.134H115.104Z" fill="#0B3C5C"/>
<path d="M25.4528 76.7487C25.4528 79.8283 26.6749 82.7819 28.8502 84.9595C31.0256 87.1372 33.976 88.3605 37.0524 88.3605H108.673C111.749 88.3605 114.699 87.1372 116.875 84.9595C119.05 82.7819 120.272 79.8283 120.272 76.7487V33.6496C120.272 30.5699 119.05 27.6164 116.875 25.4388C114.699 23.2611 111.749 22.0377 108.673 22.0377H25.7559C25.1469 29.0352 25.4528 76.7487 25.4528 76.7487Z" fill="#136296"/>
<path d="M119.578 80.5687C118.599 82.4579 117.121 84.0417 115.304 85.1472C113.487 86.2528 111.402 86.8376 109.276 86.838H37.6394C34.564 86.8373 31.6147 85.614 29.44 83.437C27.2653 81.26 26.0433 78.3076 26.0426 75.2289C26.0426 75.2289 25.7395 27.5127 26.3456 20.518H32.2364C31.925 35.0838 32.1482 69.754 32.1482 69.754C32.1482 72.8312 33.3684 75.7827 35.5408 77.9599C37.7132 80.1372 40.66 81.3622 43.7341 81.3658H115.371C116.81 81.3641 118.237 81.0937 119.578 80.5687Z" fill="#0B3C5C"/>
<path d="M108.747 89.7093H37.1271C33.6143 89.7049 30.2466 88.306 27.7627 85.8195C25.2788 83.333 23.8814 79.9618 23.8771 76.4453V27.2093C23.8698 20.8725 21.3517 14.7974 16.8754 10.3169C12.3991 5.83636 6.3301 3.31637 0 3.3098L0 0C5.96658 0.00728281 11.7656 1.97614 16.5056 5.60389C21.2456 9.23164 24.6641 14.3174 26.2355 20.0794H108.747C112.26 20.0831 115.629 21.4816 118.113 23.9682C120.598 26.4549 121.996 29.8265 122 33.3434V76.4453C121.996 79.9622 120.598 83.3339 118.113 85.8205C115.629 88.3071 112.26 89.7056 108.747 89.7093ZM26.9133 23.3892C27.0944 24.6546 27.1865 25.9311 27.1889 27.2093V76.4453C27.1925 79.0842 28.2413 81.614 30.1053 83.4799C31.9694 85.3459 34.4965 86.3958 37.1326 86.3995H108.747C111.384 86.3966 113.912 85.347 115.776 83.4809C117.641 81.6148 118.69 79.0847 118.694 76.4453V33.3434C118.69 30.7041 117.641 28.1739 115.776 26.3078C113.912 24.4417 111.384 23.3922 108.747 23.3892H26.9133Z" fill="black"/>
<path d="M45.2058 125C41.8735 125 38.6161 124.011 35.8454 122.158C33.0747 120.304 30.9152 117.67 29.6399 114.588C28.3647 111.506 28.0311 108.115 28.6812 104.843C29.3313 101.572 30.9359 98.5664 33.2922 96.2076C35.6485 93.8489 38.6506 92.2425 41.9189 91.5917C45.1871 90.9409 48.5748 91.2749 51.6534 92.5515C54.7321 93.8281 57.3634 95.9898 59.2148 98.7635C61.0661 101.537 62.0542 104.798 62.0542 108.134C62.0491 112.605 60.2724 116.892 57.1138 120.054C53.9552 123.216 49.6727 124.995 45.2058 125ZM45.2058 94.5774C42.5275 94.5774 39.9092 95.3725 37.6822 96.8621C35.4553 98.3517 33.7195 100.469 32.6946 102.946C31.6696 105.423 31.4014 108.149 31.9239 110.779C32.4465 113.408 33.7362 115.824 35.6301 117.72C37.524 119.616 39.937 120.907 42.5639 121.43C45.1908 121.953 47.9137 121.684 50.3882 120.658C52.8626 119.632 54.9776 117.895 56.4657 115.665C57.9537 113.436 58.7479 110.815 58.7479 108.134C58.7435 104.54 57.3154 101.094 54.7767 98.5528C52.238 96.0115 48.7961 94.5818 45.2058 94.5774Z" fill="black"/>
<path d="M98.9963 125C95.664 125 92.4066 124.011 89.6359 122.158C86.8652 120.304 84.7057 117.67 83.4305 114.588C82.1553 111.506 81.8216 108.115 82.4717 104.843C83.1218 101.572 84.7264 98.5664 87.0827 96.2076C89.439 93.8489 92.4411 92.2425 95.7094 91.5917C98.9777 90.9409 102.365 91.2749 105.444 92.5515C108.523 93.8281 111.154 95.9898 113.005 98.7635C114.857 101.537 115.845 104.798 115.845 108.134C115.84 112.605 114.063 116.892 110.904 120.054C107.746 123.216 103.463 124.995 98.9963 125ZM98.9963 94.5774C96.318 94.5774 93.6997 95.3725 91.4728 96.8621C89.2458 98.3517 87.5101 100.469 86.4851 102.946C85.4601 105.423 85.1919 108.149 85.7145 110.779C86.237 113.408 87.5268 115.824 89.4207 117.72C91.3145 119.616 93.7275 120.907 96.3544 121.43C98.9813 121.953 101.704 121.684 104.179 120.658C106.653 119.632 108.768 117.895 110.256 115.665C111.744 113.436 112.538 110.815 112.538 108.134C112.534 104.54 111.106 101.094 108.567 98.5528C106.029 96.0115 102.587 94.5818 98.9963 94.5774Z" fill="black"/>
<path d="M40.943 22.6473H37.6367V88.664H40.943V22.6473Z" fill="black"/>
<path d="M57.8854 22.6473H54.5791V88.664H57.8854V22.6473Z" fill="black"/>
<path d="M74.8273 22.6473H71.521V88.664H74.8273V22.6473Z" fill="black"/>
<path d="M91.7721 22.6473H88.4658V88.664H91.7721V22.6473Z" fill="black"/>
<path d="M108.714 22.6473H105.408V88.664H108.714V22.6473Z" fill="black"/>
<path d="M120.27 32.1133H25.5278V35.4231H120.27V32.1133Z" fill="black"/>
<path d="M120.27 46.4806H25.5278V49.7904H120.27V46.4806Z" fill="black"/>
<path d="M120.27 60.8451H25.5278V64.1549H120.27V60.8451Z" fill="black"/>
<path d="M120.27 75.2124H25.5278V78.5222H120.27V75.2124Z" fill="black"/>
<path d="M104.846 113.612C105.766 112.764 106.57 111.798 107.235 110.738C107.793 109.859 108.279 108.936 108.69 107.979C109.411 106.324 109.712 105.183 110.026 105.221C110.301 105.241 110.525 106.476 110.114 108.432C109.87 109.585 109.467 110.699 108.918 111.742C108.245 113.041 107.349 114.211 106.27 115.2C105.185 116.203 103.912 116.982 102.526 117.492C101.43 117.886 100.29 118.145 99.1316 118.262C98.3718 118.351 97.6055 118.372 96.842 118.325C96.2909 118.281 95.9906 118.187 95.9685 118.049C95.9465 117.912 96.2165 117.724 96.7152 117.52C97.2139 117.316 97.9468 117.087 98.8257 116.805C99.8341 116.502 100.822 116.134 101.782 115.702C102.906 115.169 103.939 114.464 104.846 113.612Z" fill="white"/>
</svg>
